<mxfile host="Electron" modified="2023-06-16T14:19:58.563Z" agent="Mozilla/5.0 (Windows NT 10.0; Win64; x64) AppleWebKit/537.36 (KHTML, like Gecko) draw.io/21.2.8 Chrome/112.0.5615.165 Electron/24.2.0 Safari/537.36" etag="TyWcnCZxODWNQt4DSOo0" version="21.2.8" type="device">
  <diagram name="Seite-1" id="QYQ5f_ryH8ZM7eeg2cKd">
    <mxGraphModel dx="1607" dy="1764" grid="1" gridSize="10" guides="1" tooltips="1" connect="1" arrows="1" fold="1" page="1" pageScale="1" pageWidth="827" pageHeight="1169" math="0" shadow="0">
      <root>
        <mxCell id="0" />
        <mxCell id="1" parent="0" />
        <mxCell id="BvIEnyty8yu35GMxuL3u-15" value="Emails an Kunde &lt;br&gt;versenden" style="edgeStyle=orthogonalEdgeStyle;rounded=0;orthogonalLoop=1;jettySize=auto;html=1;" parent="1" source="BvIEnyty8yu35GMxuL3u-18" target="BvIEnyty8yu35GMxuL3u-19" edge="1">
          <mxGeometry relative="1" as="geometry" />
        </mxCell>
        <mxCell id="BvIEnyty8yu35GMxuL3u-16" value="Wechsellkurse&lt;br&gt;abfragen" style="edgeStyle=orthogonalEdgeStyle;rounded=0;orthogonalLoop=1;jettySize=auto;html=1;" parent="1" source="BvIEnyty8yu35GMxuL3u-18" target="BvIEnyty8yu35GMxuL3u-21" edge="1">
          <mxGeometry relative="1" as="geometry">
            <Array as="points">
              <mxPoint x="160" y="150" />
              <mxPoint x="160" y="150" />
            </Array>
            <mxPoint as="offset" />
          </mxGeometry>
        </mxCell>
        <mxCell id="BvIEnyty8yu35GMxuL3u-17" value="ZufÃ¤llige Fakten&lt;br&gt;zu Katzen" style="edgeStyle=orthogonalEdgeStyle;rounded=0;orthogonalLoop=1;jettySize=auto;html=1;" parent="1" source="BvIEnyty8yu35GMxuL3u-18" target="BvIEnyty8yu35GMxuL3u-20" edge="1">
          <mxGeometry relative="1" as="geometry" />
        </mxCell>
        <mxCell id="BvIEnyty8yu35GMxuL3u-18" value="&lt;i&gt;&lt;b&gt;&amp;lt;&amp;lt;System&amp;gt;&amp;gt;&lt;/b&gt;&lt;br&gt;&lt;/i&gt;MeowMed &lt;br&gt;System" style="rounded=0;whiteSpace=wrap;html=1;" parent="1" vertex="1">
          <mxGeometry x="240" y="120" width="120" height="60" as="geometry" />
        </mxCell>
        <mxCell id="BvIEnyty8yu35GMxuL3u-19" value="&lt;i&gt;&lt;b&gt;&amp;lt;&amp;lt;External&amp;gt;&amp;gt;&lt;br&gt;&lt;/b&gt;&lt;/i&gt;Google Mail" style="rounded=0;whiteSpace=wrap;html=1;" parent="1" vertex="1">
          <mxGeometry x="520" y="120" width="120" height="60" as="geometry" />
        </mxCell>
        <mxCell id="BvIEnyty8yu35GMxuL3u-20" value="&lt;i&gt;&lt;b&gt;&amp;lt;&amp;lt;External&amp;gt;&amp;gt;&lt;/b&gt;&lt;/i&gt;&lt;br&gt;Cat Facts API" style="rounded=0;whiteSpace=wrap;html=1;" parent="1" vertex="1">
          <mxGeometry x="240" y="-20" width="120" height="60" as="geometry" />
        </mxCell>
        <mxCell id="BvIEnyty8yu35GMxuL3u-21" value="&lt;b&gt;&lt;i&gt;&amp;lt;&amp;lt;External&amp;gt;&amp;gt;&lt;/i&gt;&lt;/b&gt;&lt;br&gt;Exchange Rate API" style="rounded=0;whiteSpace=wrap;html=1;" parent="1" vertex="1">
          <mxGeometry x="-40" y="120" width="120" height="60" as="geometry" />
        </mxCell>
        <mxCell id="BvIEnyty8yu35GMxuL3u-22" value="" style="edgeStyle=orthogonalEdgeStyle;rounded=0;orthogonalLoop=1;jettySize=auto;html=1;" parent="1" source="BvIEnyty8yu35GMxuL3u-23" target="BvIEnyty8yu35GMxuL3u-18" edge="1">
          <mxGeometry relative="1" as="geometry" />
        </mxCell>
        <mxCell id="BvIEnyty8yu35GMxuL3u-23" value="Sachbearbeiter" style="shape=umlActor;verticalLabelPosition=bottom;verticalAlign=top;html=1;outlineConnect=0;" parent="1" vertex="1">
          <mxGeometry x="285" y="240" width="30" height="60" as="geometry" />
        </mxCell>
      </root>
    </mxGraphModel>
  </diagram>
</mxfile>
